# xmcd
#
# Track frame offsets: 
#        150
#        11662
#        23597
#        34117
#        46337
#        57702
#        70765
#        84335
#        96490
#        106922
#        120047
#        133832
#        145007
#        158182
#        171070
#        183670
#        194807
#        206335
#        216815
#        227015
#        239100
#
# Disc length: 3342 seconds
#
# Revision: 4
# Processed by: cddbd v1.5.2PL0 Copyright (c) Steve Scherf et al.
# Submitted via: ExactAudioCopy v0.95b4
#
DISCID=290d0c15
DTITLE=Robert Johnson - Steady Rollin' Man [CD1]
DYEAR=1999
DGENRE=Delta Blues
TTITLE0=Walking Blues
TTITLE1=Me and the Devil
TTITLE2=Honeymoon Blues
TTITLE3=Crossroad Blues
TTITLE4=Stones in my Passway
TTITLE5=Kindhearted Woman
TTITLE6=They're Red Hot
TTITLE7=Phonograph Blues
TTITLE8=Milkcow Calf's Blues
TTITLE9=Ramblin' on My Mind
TTITLE10=Terraplane Blues
TTITLE11=Drunken Hearted Man
TTITLE12=32:20 Blues
TTITLE13=Come on in My Kitchen
TTITLE14=Traveling Riverside Blues
TTITLE15=Love in Vain
TTITLE16=Dead Shrimp Blues
TTITLE17=Stop Breaking Down
TTITLE18=Little Queen of Spades
TTITLE19=When You Got a Good Friend
TTITLE20=If I Had Possession over Judgement Day
EXTD=
EXTT0=
EXTT1=
EXTT2=
EXTT3=
EXTT4=
EXTT5=
EXTT6=
EXTT7=
EXTT8=
EXTT9=
EXTT10=
EXTT11=
EXTT12=
EXTT13=
EXTT14=
EXTT15=
EXTT16=
EXTT17=
EXTT18=
EXTT19=
EXTT20=
PLAYORDER=
